<svg xmlns="http://www.w3.org/2000/svg" width="30" height="30" viewBox="0 0 30 30">
  <g id="facebook-logo-in-circular-button-outlined-social-symbol" opacity="0.6">
    <g id="Group_2" data-name="Group 2">
      <path id="Path_3" data-name="Path 3" d="M30,15A15,15,0,1,0,15,30,15,15,0,0,0,30,15ZM1.364,15A13.636,13.636,0,1,1,15,28.636,13.636,13.636,0,0,1,1.364,15Z" fill="#fff"/>
      <path id="Path_4" data-name="Path 4" d="M228.429,147.148v-8.658h2.857l.451-2.869h-3.308v-1.439c0-.749.245-1.463,1.32-1.463H231.9v-2.864h-3.049c-2.564,0-3.263,1.688-3.263,4.028v1.736h-1.759v2.87h1.759v8.658Z" transform="translate(-212.853 -123.491)" fill="#fff"/>
    </g>
  </g>
</svg>
