<svg xmlns="http://www.w3.org/2000/svg" width="30" height="29.5" viewBox="0 0 30 29.5">
  <g id="server_2_" data-name="server (2)" transform="translate(0 -0.5)" opacity="0.4">
    <path id="Path_595" data-name="Path 595" d="M8.25,6.5A2.25,2.25,0,1,0,10.5,8.75,2.253,2.253,0,0,0,8.25,6.5Zm0,3.5A1.25,1.25,0,1,1,9.5,8.75,1.251,1.251,0,0,1,8.25,10Z" transform="translate(-3 -3)"/>
    <circle id="Ellipse_24" data-name="Ellipse 24" cx="0.5" cy="0.5" r="0.5" transform="translate(24.5 4.5)"/>
    <circle id="Ellipse_25" data-name="Ellipse 25" cx="0.5" cy="0.5" r="0.5" transform="translate(22.5 4.5)"/>
    <circle id="Ellipse_26" data-name="Ellipse 26" cx="0.5" cy="0.5" r="0.5" transform="translate(25.5 6)"/>
    <circle id="Ellipse_27" data-name="Ellipse 27" cx="0.5" cy="0.5" r="0.5" transform="translate(23.5 6)"/>
    <circle id="Ellipse_28" data-name="Ellipse 28" cx="0.5" cy="0.5" r="0.5" transform="translate(20.5 4.5)"/>
    <circle id="Ellipse_29" data-name="Ellipse 29" cx="0.5" cy="0.5" r="0.5" transform="translate(21.5 6)"/>
    <circle id="Ellipse_30" data-name="Ellipse 30" cx="0.5" cy="0.5" r="0.5" transform="translate(18.5 4.5)"/>
    <circle id="Ellipse_31" data-name="Ellipse 31" cx="0.5" cy="0.5" r="0.5" transform="translate(19.5 6)"/>
    <circle id="Ellipse_32" data-name="Ellipse 32" cx="0.5" cy="0.5" r="0.5" transform="translate(16.5 4.5)"/>
    <circle id="Ellipse_33" data-name="Ellipse 33" cx="0.5" cy="0.5" r="0.5" transform="translate(17.5 6)"/>
    <path id="Path_596" data-name="Path 596" d="M30,8.7V2.8A2.307,2.307,0,0,0,27.7.5H2.3A2.307,2.307,0,0,0,0,2.8V8.7a2.29,2.29,0,0,0,.888,1.8A2.293,2.293,0,0,0,0,12.3V18.2A2.29,2.29,0,0,0,.888,20,2.293,2.293,0,0,0,0,21.8V27.7A2.307,2.307,0,0,0,2.3,30H27.7A2.307,2.307,0,0,0,30,27.7V21.8a2.29,2.29,0,0,0-.889-1.8A2.29,2.29,0,0,0,30,18.2V12.3a2.29,2.29,0,0,0-.889-1.8A2.291,2.291,0,0,0,30,8.7ZM29,21.8V27.7A1.306,1.306,0,0,1,27.7,29H2.3A1.3,1.3,0,0,1,1,27.7V21.8a1.306,1.306,0,0,1,1.3-1.3H27.7A1.306,1.306,0,0,1,29,21.8Zm0-9.5V18.2a1.306,1.306,0,0,1-1.3,1.3H2.3A1.3,1.3,0,0,1,1,18.2V12.3A1.306,1.306,0,0,1,2.3,11H27.7A1.306,1.306,0,0,1,29,12.3ZM2.3,10A1.306,1.306,0,0,1,1,8.7V2.8A1.306,1.306,0,0,1,2.3,1.5H27.7A1.306,1.306,0,0,1,29,2.8V8.7A1.306,1.306,0,0,1,27.7,10H2.3Z" transform="translate(0 0)"/>
    <path id="Path_597" data-name="Path 597" d="M8.25,30A2.25,2.25,0,1,0,6,27.75,2.253,2.253,0,0,0,8.25,30Zm0-3.5A1.25,1.25,0,1,1,7,27.75,1.251,1.251,0,0,1,8.25,26.5Z" transform="translate(-3 -12.5)"/>
    <circle id="Ellipse_34" data-name="Ellipse 34" cx="0.5" cy="0.5" r="0.5" transform="translate(24.5 14)"/>
    <circle id="Ellipse_35" data-name="Ellipse 35" cx="0.5" cy="0.5" r="0.5" transform="translate(22.5 14)"/>
    <circle id="Ellipse_36" data-name="Ellipse 36" cx="0.5" cy="0.5" r="0.5" transform="translate(25.5 15.5)"/>
    <circle id="Ellipse_37" data-name="Ellipse 37" cx="0.5" cy="0.5" r="0.5" transform="translate(23.5 15.5)"/>
    <circle id="Ellipse_38" data-name="Ellipse 38" cx="0.5" cy="0.5" r="0.5" transform="translate(20.5 14)"/>
    <circle id="Ellipse_39" data-name="Ellipse 39" cx="0.5" cy="0.5" r="0.5" transform="translate(21.5 15.5)"/>
    <circle id="Ellipse_40" data-name="Ellipse 40" cx="0.5" cy="0.5" r="0.5" transform="translate(18.5 14)"/>
    <circle id="Ellipse_41" data-name="Ellipse 41" cx="0.5" cy="0.5" r="0.5" transform="translate(19.5 15.5)"/>
    <circle id="Ellipse_42" data-name="Ellipse 42" cx="0.5" cy="0.5" r="0.5" transform="translate(16.5 14)"/>
    <circle id="Ellipse_43" data-name="Ellipse 43" cx="0.5" cy="0.5" r="0.5" transform="translate(17.5 15.5)"/>
    <path id="Path_598" data-name="Path 598" d="M8.25,49A2.25,2.25,0,1,0,6,46.75,2.253,2.253,0,0,0,8.25,49Zm0-3.5A1.25,1.25,0,1,1,7,46.75,1.251,1.251,0,0,1,8.25,45.5Z" transform="translate(-3 -22)"/>
    <circle id="Ellipse_44" data-name="Ellipse 44" cx="0.5" cy="0.5" r="0.5" transform="translate(24.5 23.5)"/>
    <circle id="Ellipse_45" data-name="Ellipse 45" cx="0.5" cy="0.5" r="0.5" transform="translate(22.5 23.5)"/>
    <circle id="Ellipse_46" data-name="Ellipse 46" cx="0.5" cy="0.5" r="0.5" transform="translate(25.5 25)"/>
    <circle id="Ellipse_47" data-name="Ellipse 47" cx="0.5" cy="0.5" r="0.5" transform="translate(23.5 25)"/>
    <circle id="Ellipse_48" data-name="Ellipse 48" cx="0.5" cy="0.5" r="0.5" transform="translate(20.5 23.5)"/>
    <circle id="Ellipse_49" data-name="Ellipse 49" cx="0.5" cy="0.5" r="0.5" transform="translate(21.5 25)"/>
    <circle id="Ellipse_50" data-name="Ellipse 50" cx="0.5" cy="0.5" r="0.5" transform="translate(18.5 23.5)"/>
    <circle id="Ellipse_51" data-name="Ellipse 51" cx="0.5" cy="0.5" r="0.5" transform="translate(19.5 25)"/>
    <circle id="Ellipse_52" data-name="Ellipse 52" cx="0.5" cy="0.5" r="0.5" transform="translate(16.5 23.5)"/>
    <circle id="Ellipse_53" data-name="Ellipse 53" cx="0.5" cy="0.5" r="0.5" transform="translate(17.5 25)"/>
  </g>
</svg>
