<svg xmlns="http://www.w3.org/2000/svg" width="30" height="30" viewBox="0 0 30 30">
  <g id="twitter-circular-button" opacity="0.6">
    <g id="Group_3" data-name="Group 3">
      <path id="Path_5" data-name="Path 5" d="M155.767,168.7c0-.151,0-.3-.01-.45a6.814,6.814,0,0,0,1.654-1.778,6.351,6.351,0,0,1-1.9.521,3.4,3.4,0,0,0,1.458-1.9,6.365,6.365,0,0,1-2.1.811,3.3,3.3,0,0,0-2.419-1.141,3.349,3.349,0,0,0-3.314,3.454,3.684,3.684,0,0,0,.086.8,9.332,9.332,0,0,1-6.832-3.775,3.717,3.717,0,0,0,1.025,4.735,3.172,3.172,0,0,1-1.5-.46v.045a3.52,3.52,0,0,0,2.659,3.488,3.139,3.139,0,0,1-.873.119,3.028,3.028,0,0,1-.623-.068,3.369,3.369,0,0,0,3.1,2.467,6.4,6.4,0,0,1-4.115,1.5,6.313,6.313,0,0,1-.791-.05,8.941,8.941,0,0,0,5.081,1.593C152.434,178.606,155.767,173.3,155.767,168.7Z" transform="translate(-134.335 -156.682)" fill="#fff"/>
      <path id="Path_6" data-name="Path 6" d="M30,15A15,15,0,1,0,15,30,15,15,0,0,0,30,15ZM1.364,15A13.636,13.636,0,1,1,15,28.636,13.636,13.636,0,0,1,1.364,15Z" fill="#fff"/>
    </g>
  </g>
</svg>
